<svg xmlns="http://www.w3.org/2000/svg" xmlns:xlink="http://www.w3.org/1999/xlink" width="400" height="400" viewBox="0 0 400 400"><defs><filter id="a" x="43" y="48" width="311" height="311" filterUnits="userSpaceOnUse"><feOffset dx="-2" dy="4" input="SourceAlpha"/><feGaussianBlur stdDeviation="3" result="b"/><feFlood flood-color="#00a6ff" flood-opacity="0.271"/><feComposite operator="in" in2="b"/><feComposite in="SourceGraphic"/></filter></defs><g transform="translate(-1.212)"><rect width="400" height="400" rx="33" transform="translate(1.212)" fill="#017cbe"/><g transform="matrix(1, 0, 0, 1, 1.21, 0)" filter="url(#a)"><path d="M146.5,0A146.5,146.5,0,1,1,0,146.5,146,146,0,0,1,146.5,0Z" transform="translate(54 53)" fill="#fff"/></g><path d="M102.7-284l24.788,9.188,139.156,50" transform="translate(51.464 326.8)" fill="none" stroke="#017cbe" stroke-width="6"/><path d="M0,0,216.541,62.542" transform="matrix(0.998, 0.07, -0.07, 0.998, 131.883, 66.986)" fill="none" stroke="#017cbe" stroke-width="6"/><path d="M0,0,263.659,63.431" transform="matrix(0.995, 0.105, -0.105, 0.995, 98.552, 91.151)" fill="none" stroke="#017cbe" stroke-width="6"/><path d="M-3.552-2.193,284.815,56.74" transform="translate(76.053 124.482) rotate(8)" fill="none" stroke="#017cbe" stroke-width="6"/><path d="M0,0,297.768,58.347" transform="translate(54.875 163.646) rotate(8)" fill="none" stroke="#017cbe" stroke-width="6"/><path d="M0,0,275.109,59.359" transform="translate(50.677 211.142) rotate(8)" fill="none" stroke="#017cbe" stroke-width="6"/><path d="M0,0,211.2,41.842" transform="translate(66.509 267.805) rotate(8)" fill="none" stroke="#017cbe" stroke-width="6"/><path d="M34,0,68,26H0Z" transform="translate(109.178 323.459) rotate(-14)" fill="#fff"/></g></svg>